<?xml version="1.0" encoding="UTF-8"?>
<svg id="Calque_1" data-name="Calque 1" xmlns="http://www.w3.org/2000/svg" viewBox="0 0 1643.41 605">
  <defs>
    <style>
      .cls-1 {
        fill: #fff;
      }
    </style>
  </defs>
  <g>
    <polygon class="cls-1" points="127.09 463.27 204.34 463.27 204.34 340.7 313.96 340.7 313.96 276.39 204.34 276.39 204.34 206.04 332.09 206.04 332.09 141.74 127.09 141.74 127.09 463.27"/>
    <path class="cls-1" d="M712.95,304.44c11.36-15.82,17.05-36.25,17.05-61.28s-5.68-46.25-17.05-61.07c-11.37-14.81-26.54-25.25-45.53-31.29-18.99-6.04-40-9.06-63.01-9.06h-117.82v321.53h77.25v-113.07h37.14l59.11,113.07h86.32l-71.8-127.15c15.67-7.34,28.46-17.9,38.35-31.67h-.01ZM563.84,203.02h34.53c18.41,0,32.44,2.88,42.08,8.63,9.64,5.76,14.46,16.26,14.46,31.51s-4.82,26.4-14.46,34.31c-9.64,7.92-23.67,11.87-42.08,11.87h-34.53v-86.32h0Z"/>
    <path class="cls-1" d="M950.1,141.74l-99.69,321.53h78.55l18.45-73.8h95.16l18.45,73.8h81.14l-99.69-321.53h-92.37ZM962.29,329.91l6.8-27.19c4.03-16.11,8.2-33.16,12.52-51.14s8.34-35.32,12.08-52.01h1.73c4.32,16.4,8.56,33.66,12.73,51.79s8.42,35.25,12.73,51.36l6.8,27.19h-65.39,0Z"/>
    <path class="cls-1" d="M1498.84,184.03c-11.65-15.25-27.19-26.11-46.61-32.58s-40.93-9.71-64.52-9.71h-113.07v321.53h77.25v-106.6h37.55c22.73,0,43.73-3.88,63.01-11.65,19.27-7.77,34.74-19.78,46.39-36.04,11.65-16.25,17.48-37.04,17.48-62.36s-5.83-47.33-17.48-62.58h0ZM1427.42,283.08c-9.21,8.49-23.16,12.73-41.86,12.73h-33.66v-92.79h31.51c18.7,0,33.02,3.24,42.94,9.71,9.93,6.47,14.89,17.77,14.89,33.88s-4.61,27.98-13.81,36.47h0Z"/>
  </g>
  <path class="cls-1" d="M1643.41,605H0V0h1643.41v605ZM17.6,587.4h1608.21V17.6H17.6v569.8h0Z"/>
</svg>